<?xml version="1.0" encoding="UTF-8" standalone="no"?>
<!-- Created with Inkscape (http://www.inkscape.org/) -->

<svg
   xmlns:dc="http://purl.org/dc/elements/1.1/"
   xmlns:cc="http://creativecommons.org/ns#"
   xmlns:rdf="http://www.w3.org/1999/02/22-rdf-syntax-ns#"
   xmlns:svg="http://www.w3.org/2000/svg"
   xmlns="http://www.w3.org/2000/svg"
   xmlns:sodipodi="http://sodipodi.sourceforge.net/DTD/sodipodi-0.dtd"
   xmlns:inkscape="http://www.inkscape.org/namespaces/inkscape"
   width="54.127724mm"
   height="30.635811mm"
   viewBox="0 0 54.127724 30.635811"
   version="1.1"
   id="svg8"
   inkscape:version="0.92.2 5c3e80d, 2017-08-06"
   sodipodi:docname="sa2c_blue.svg">
  <defs
     id="defs2">
    <inkscape:path-effect
       effect="powerstroke"
       id="path-effect1043"
       is_visible="true"
       offset_points="0,0.13229166"
       sort_points="true"
       interpolator_type="CubicBezierJohan"
       interpolator_beta="0.2"
       start_linecap_type="zerowidth"
       linejoin_type="extrp_arc"
       miter_limit="4"
       end_linecap_type="zerowidth" />
    <clipPath
       clipPathUnits="userSpaceOnUse"
       id="clipPath989">
      <g
         inkscape:label="Clip"
         id="use991">
        <rect
           y="132.2686"
           x="109.76257"
           height="1.0112054"
           width="1.3686649"
           id="rect843"
           style="fill:#e5822a;fill-opacity:1;stroke-width:0.29765368" />
        <rect
           y="132.2686"
           x="111.33111"
           height="1.0112054"
           width="1.3686649"
           id="rect845"
           style="fill:#e5822a;fill-opacity:1;stroke-width:0.29765368" />
        <rect
           y="132.2686"
           x="112.90011"
           height="1.0112054"
           width="1.3686649"
           id="rect847"
           style="fill:#e5822a;fill-opacity:1;stroke-width:0.29765368" />
        <rect
           y="131.05762"
           x="109.76257"
           height="1.0112054"
           width="1.3686649"
           id="rect849"
           style="fill:#e5822a;fill-opacity:1;stroke-width:0.29765368" />
        <rect
           y="129.84662"
           x="111.33111"
           height="1.0112054"
           width="1.3686649"
           id="rect851"
           style="fill:#e5822a;fill-opacity:1;stroke-width:0.29765368" />
        <rect
           y="128.63562"
           x="112.90011"
           height="1.0112054"
           width="1.3686649"
           id="rect853"
           style="fill:#e5822a;fill-opacity:1;stroke-width:0.29765368" />
        <rect
           y="127.42464"
           x="112.90011"
           height="1.0112054"
           width="1.3686649"
           id="rect855"
           style="fill:#e5822a;fill-opacity:1;stroke-width:0.29765368" />
        <rect
           y="126.31361"
           x="111.43111"
           height="1.0112054"
           width="1.3686649"
           id="rect858"
           style="fill:#e5822a;fill-opacity:1;stroke-width:0.29765368" />
        <rect
           y="127.42462"
           x="109.9621"
           height="1.0112054"
           width="1.3686649"
           id="rect860"
           style="fill:#e5822a;fill-opacity:1;stroke-width:0.29765368" />
      </g>
    </clipPath>
  </defs>
  <sodipodi:namedview
     id="base"
     pagecolor="#ffffff"
     bordercolor="#666666"
     borderopacity="1.0"
     inkscape:pageopacity="0.0"
     inkscape:pageshadow="2"
     inkscape:zoom="7.2407734"
     inkscape:cx="71.925791"
     inkscape:cy="52.198472"
     inkscape:document-units="mm"
     inkscape:current-layer="layer1"
     showgrid="false"
     inkscape:window-width="1680"
     inkscape:window-height="951"
     inkscape:window-x="0"
     inkscape:window-y="1"
     inkscape:window-maximized="1"
     inkscape:pagecheckerboard="false"
     fit-margin-top="2"
     fit-margin-left="2"
     fit-margin-right="2"
     fit-margin-bottom="2" />
  <metadata
     id="metadata5">
    <rdf:RDF>
      <cc:Work
         rdf:about="">
        <dc:format>image/svg+xml</dc:format>
        <dc:type
           rdf:resource="http://purl.org/dc/dcmitype/StillImage" />
        <dc:title />
      </cc:Work>
    </rdf:RDF>
  </metadata>
  <g
     inkscape:label="Layer 1"
     inkscape:groupmode="layer"
     id="layer1"
     transform="translate(-80.895582,-123.2625)">
    <text
       xml:space="preserve"
       style="font-style:normal;font-weight:normal;font-size:10.58333302px;line-height:1.25;font-family:sans-serif;letter-spacing:0px;word-spacing:0px;fill:#000000;fill-opacity:1;stroke:none;stroke-width:0.26458332"
       x="117.33132"
       y="37.21402"
       id="text4538"><tspan
         sodipodi:role="line"
         id="tspan4536"
         x="117.33132"
         y="46.869514"
         style="stroke-width:0.26458332" /></text>
    <g
       aria-label="SAC"
       style="font-style:normal;font-weight:normal;font-size:30.73700142px;line-height:1.25;font-family:sans-serif;letter-spacing:0px;word-spacing:0px;fill:#5669a6;fill-opacity:0.98431373;stroke:none;stroke-width:0.76842499"
       id="text997-4">
      <path
         d="m 95.427514,130.93171 -2.11617,1.69593 q -0.840465,-0.87048 -1.530847,-1.29071 -0.675374,-0.43524 -1.966088,-0.43524 -1.41078,0 -2.29627,0.64536 -0.870481,0.63034 -0.870481,1.6359 0,0.87048 0.765423,1.54586 0.765424,0.66036 2.611445,1.4558 1.846021,0.78043 2.866585,1.47081 1.035573,0.67538 1.695938,1.50084 0.660366,0.82545 0.97554,1.74096 0.330182,0.9155 0.330182,1.93607 0,2.38632 -1.740963,4.06725 -1.725954,1.68093 -4.187316,1.68093 -2.401328,0 -4.247349,-1.30572 -1.831013,-1.32073 -2.821561,-3.94719 l 2.611445,-0.7354 q 1.425788,3.22678 4.367416,3.22678 1.425788,0 2.371311,-0.85547 0.945523,-0.85548 0.945523,-2.1612 0,-0.78043 -0.495274,-1.56086 -0.495274,-0.79544 -1.23068,-1.30572 -0.735407,-0.51029 -2.356304,-1.15564 -1.605888,-0.66037 -2.47637,-1.20067 -0.855473,-0.5553 -1.485821,-1.30572 -0.630349,-0.76542 -0.930515,-1.51584 -0.285158,-0.75041 -0.285158,-1.60589 0,-2.05613 1.650913,-3.49693 1.650914,-1.4558 4.007217,-1.4558 1.560863,0 3.166751,0.67537 1.605889,0.67537 2.671478,2.05614 z"
         style="font-style:normal;font-variant:normal;font-weight:normal;font-stretch:normal;font-size:30.73700142px;font-family:'Tw Cen MT';-inkscape-font-specification:'Tw Cen MT, Normal';font-variant-ligatures:normal;font-variant-caps:normal;font-variant-numeric:normal;font-feature-settings:normal;text-align:start;writing-mode:lr-tb;text-anchor:start;fill:#5a6ca5;fill-opacity:1;stroke-width:0.76842499"
         id="path832" />
      <path
         d="m 106.2485,128.08013 9.035,19.85598 h -2.73151 l -2.23624,-4.8927 h -8.11949 l -2.17621,4.8927 h -2.716498 z m 0,5.98831 -3.0767,6.79876 h 6.1534 z"
         style="font-style:normal;font-variant:normal;font-weight:normal;font-stretch:normal;font-size:30.73700142px;font-family:'Tw Cen MT';-inkscape-font-specification:'Tw Cen MT, Normal';font-variant-ligatures:normal;font-variant-caps:normal;font-variant-numeric:normal;font-feature-settings:normal;text-align:start;writing-mode:lr-tb;text-anchor:start;fill:#5a6ca5;fill-opacity:1;stroke-width:0.76842499"
         id="path834" />
      <path
         d="m 131.9277,129.46089 v 2.95664 q -3.09171,-1.51584 -5.68814,-1.51584 -3.33185,0 -5.61311,2.16119 -2.28126,2.14619 -2.28126,5.28293 0,3.19677 2.32629,5.34295 2.34129,2.13118 5.85324,2.13118 2.55141,0 5.40298,-1.60589 v 2.98665 q -2.59643,1.38077 -5.62811,1.38077 -4.44246,0 -7.5942,-3.00166 -3.15174,-3.01667 -3.15174,-7.26402 0,-4.17231 3.09171,-7.14395 3.10672,-2.97164 7.47413,-2.97164 2.80655,0 5.80821,1.26069 z"
         style="font-style:normal;font-variant:normal;font-weight:normal;font-stretch:normal;font-size:30.73700142px;font-family:'Tw Cen MT';-inkscape-font-specification:'Tw Cen MT, Normal';font-variant-ligatures:normal;font-variant-caps:normal;font-variant-numeric:normal;font-feature-settings:normal;text-align:start;writing-mode:lr-tb;text-anchor:start;fill:#5a6ca5;fill-opacity:1;stroke-width:0.76842499"
         id="path836" />
    </g>
    <path
       style="fill:#e5822a;fill-opacity:1;stroke-width:0.26458332"
       d="m 96.542653,149.30794 h 19.566737 l 1.39379,2.59037 -22.25982,-0.0236 z"
       id="rect1006-8"
       inkscape:connector-curvature="0"
       sodipodi:nodetypes="ccccc" />
    <path
       id="rect857-9-0-6-8"
       style="fill:#e5822a;fill-opacity:1;stroke-width:0.2918227"
       d="m 111.0992,126.35175 h 1.34185 v 0.9914 h -1.34185 z m 1.44023,-1.08925 h 1.34185 v 0.99139 h -1.34185 z m 1.44022,1.08927 h 1.34186 v 0.99139 h -1.34186 z m 0,1.18725 h 1.34186 v 0.99139 h -1.34186 z m -1.53826,1.18728 h 1.34185 v 0.9914 h -1.34185 z m -1.53781,1.18727 h 1.34185 v 0.9914 h -1.34185 z m 3.07607,1.18726 h 1.34186 v 0.9914 h -1.34186 z m -1.53826,0 h 1.34185 v 0.9914 h -1.34185 z m -1.53781,0 h 1.34185 v 0.9914 h -1.34185 z" />
  </g>
</svg>
